<?xml version="1.0" encoding="utf-8"?>
<!-- Generator: Adobe Illustrator 15.1.0, SVG Export Plug-In . SVG Version: 6.00 Build 0)  -->
<!DOCTYPE svg PUBLIC "-//W3C//DTD SVG 1.1//EN" "http://www.w3.org/Graphics/SVG/1.1/DTD/svg11.dtd">
<svg version="1.1" id="Layer_1" xmlns="http://www.w3.org/2000/svg" xmlns:xlink="http://www.w3.org/1999/xlink" x="0px" y="0px"
	 width="382px" height="37.52px" viewBox="0 0 382 37.52" enable-background="new 0 0 382 37.52" xml:space="preserve">
<g>
	<path fill="#E11B22" d="M117.146,16.178l-5.855-4.989l5.406,10.903c2.866-6.78,14.525-18.629,14.525-18.629
		s-5.404,3.921-8.751,7.092C119.873,13.017,117.146,16.178,117.146,16.178z"/>
	<path fill="#E11B22" d="M126.853,9.872c0.076,4.397-0.406,7.861-1.406,9.94c-2.344,4.877-7.331,7.823-8.66,8.542
		c-1.333-0.723-6.331-3.69-8.663-8.543c-1.212-2.518-1.664-7.068-1.282-12.848l9.944-4.109l8.87,3.666l1.437-1.099l-10.311-4.262
		l-11.406,4.719l-0.04,0.541c-0.263,3.623-0.43,10.271,1.405,14.083c2.923,6.083,9.437,9.31,9.712,9.442l0.331,0.162l0.33-0.16
		c0.275-0.132,6.77-3.313,9.716-9.444c1.594-3.313,1.677-8.772,1.498-12.522L126.853,9.872z"/>
</g>
<path fill="#E11B22" d="M12.154,21.815c-2.094,0-3.342-1.703-3.342-4.083c0-2.642,1.46-4.095,3.287-4.095
	c1.829,0,2.492,0.848,2.73,1.721l3.104-0.794c-0.69-1.538-2.388-3.739-5.727-3.739c-3.766,0-6.683,2.944-6.683,6.99
	c0,4.175,2.892,6.958,6.576,6.958c2.307,0,4.931-1.265,5.966-4.118l-3.261-0.638C14.404,21.073,14.168,21.815,12.154,21.815z"/>
<path fill="#E11B22" d="M140.876,11.359c-1.236,0-1.972-1.006-1.972-2.41c0-1.559,0.862-2.417,1.94-2.417
	c1.079,0,1.471,0.5,1.612,1.015l1.832-0.468c-0.408-0.908-1.41-2.208-3.38-2.208c-2.222,0-3.944,1.738-3.944,4.125
	c0,2.464,1.708,4.107,3.88,4.107c1.362,0,2.91-0.748,3.521-2.431l-1.924-0.376C142.204,10.921,142.065,11.359,140.876,11.359z"/>
<rect x="19.284" y="6.367" fill="#E11B22" width="3.297" height="18.099"/>
<path fill="#E11B22" d="M34.286,11.671c-1.167-0.69-2.437-0.848-3.704-0.848c-0.844,0-3.728,0-5,2.308
	c-0.416,0.754-0.476,1.303-0.528,1.95h3.257c0.005-0.3,0.043-0.605,0.319-0.943c0.315-0.423,0.764-0.848,2.083-0.848
	c2.193,0,2.274,1.455,2.274,2.119c-1.457,0.321-1.104,0.245-3.681,0.8c-1.563,0.336-3.58,0.739-4.537,2.648
	c-0.264,0.528-0.422,1.141-0.422,1.801c0,2.277,1.803,4.122,4.788,4.122c1.819,0,3.062-0.759,3.745-1.338v1.021h3.248v-8.635
	C36.126,14.399,35.851,12.625,34.286,11.671z M32.971,19.286c0,0.401,0,0.801-0.184,1.199c-0.343,0.796-1.49,1.58-3.099,1.58
	c-1.264,0-2.133-0.53-2.133-1.564c0-1.406,1.591-1.731,2.714-1.96c1.5-0.304,2.705-0.553,2.705-0.553L32.971,19.286z"/>
<path fill="#E11B22" d="M56.932,11.671c-1.168-0.69-2.438-0.848-3.705-0.848c-0.843,0-3.727,0-4.999,2.308
	c-0.417,0.754-0.476,1.303-0.528,1.95h3.256c0.005-0.3,0.043-0.605,0.319-0.943c0.315-0.423,0.764-0.848,2.084-0.848
	c2.193,0,2.273,1.455,2.273,2.119c-1.457,0.321-1.104,0.245-3.682,0.8c-1.563,0.336-3.58,0.739-4.535,2.648
	c-0.265,0.528-0.423,1.141-0.423,1.801c0,2.277,1.803,4.122,4.788,4.122c1.819,0,3.06-0.759,3.744-1.338v1.021h3.248l0-8.635
	C58.772,14.399,58.497,12.625,56.932,11.671z M55.617,19.286c0,0.401,0,0.801-0.184,1.199c-0.343,0.796-1.49,1.58-3.099,1.58
	c-1.265,0-2.134-0.53-2.134-1.564c0-1.406,1.592-1.731,2.713-1.96c1.5-0.304,2.705-0.553,2.705-0.553L55.617,19.286z"/>
<path fill="#E11B22" d="M42.218,12.756v-1.643h-3.294v13.348h3.294v-5.428c0-3.285,0.743-3.886,1.379-4.319
	c1.021-0.691,2.863-0.511,2.863-0.511v-3.239C43.131,10.964,42.218,12.756,42.218,12.756z"/>
<path fill="#E11B22" d="M171.826,6.012V5.043h-1.945v7.876h1.945V9.717c0-1.938,0.438-2.293,0.813-2.548
	c0.603-0.408,1.69-0.302,1.69-0.302V4.955C172.364,4.955,171.826,6.012,171.826,6.012z"/>
<path fill="#E11B22" d="M95.391,21.96c-1.52,0-1.52-0.482-1.52-2.148v-6.35h2.481v-2.348h-2.481V6.367h-3.205v4.747H88.88v2.348
	h1.786v6.859c0,1.346,0,2.208,0.213,2.737c0.613,1.635,2.857,1.714,3.525,1.714c0.52,0,1.135-0.108,1.987-0.184v-2.654
	C95.934,21.953,95.602,21.96,95.391,21.96z"/>
<path fill="#E11B22" d="M68.395,10.826c-1.313,0-2.705,0.623-3.673,1.592v-1.304H61.53v13.35h3.184v-6.719
	c0-0.091,0.007-1.481,0.007-1.569c0-1.385,1.066-2.604,2.765-2.604c1.462,0,2.51,0.909,2.51,2.649v8.243h3.098v-8.443
	c0-0.722,0-1.417-0.214-2.113C72.264,11.874,70.402,10.826,68.395,10.826z"/>
<path fill="#E11B22" d="M81.546,10.826l0,0.003c-3.765,0.043-6.547,2.799-6.547,6.856c0,0.264,0.056,0.816,0.056,0.816
	c0.392,4.282,3.675,6.266,6.929,6.266c2.7,0,4.362-1.007,6.002-3.216l-2.298-1.73c-0.397,0.557-1.588,2.052-3.758,2.052
	c-2.072,0-3.503-1.393-3.887-3.375l9.939-0.011C87.981,13.788,85.428,10.826,81.546,10.826z M78.337,16.074
	c0,0,0.388-2.805,3.128-2.805c2.74,0,3.31,2.805,3.31,2.805H78.337z"/>
<path fill="#E11B22" d="M164.741,4.874v0.002c-2.221,0.025-3.864,1.651-3.864,4.046c0,0.156,0.034,0.48,0.034,0.48
	c0.231,2.528,2.168,3.699,4.088,3.699c1.594,0,2.574-0.594,3.542-1.897l-1.356-1.021c-0.234,0.327-0.937,1.21-2.217,1.21
	c-1.223,0-2.067-0.823-2.294-1.992l5.866-0.006C168.54,6.622,167.033,4.874,164.741,4.874z M162.848,7.971
	c0,0,0.23-1.656,1.847-1.656c1.616,0,1.953,1.656,1.953,1.656H162.848z"/>
<path fill="#E11B22" d="M149.709,11.679c-0.287,0.933-0.606,2.462-1.405,3.121c-0.51,0.428-1.085,0.49-1.739,0.49
	c-0.351,0-0.733-0.016-1.069-0.108v-1.59c0.176,0.015,0.336,0.046,0.511,0.046c0.654,0,1.117-0.198,1.308-0.825l-2.888-7.781h2.017
	l1.828,5.181l1.478-5.181h1.985L149.709,11.679z"/>
<g>
	<path fill="#E11B22" d="M156.979,23.447c-1.235,0-1.972-1.005-1.972-2.409c0-1.56,0.861-2.417,1.939-2.417
		c1.079,0,1.471,0.5,1.611,1.015l1.832-0.467c-0.408-0.909-1.409-2.208-3.379-2.208c-2.223,0-3.944,1.737-3.944,4.125
		c0,2.464,1.706,4.106,3.88,4.106c1.361,0,2.91-0.747,3.521-2.43l-1.924-0.378C158.307,23.009,158.168,23.447,156.979,23.447z"/>
	<path fill="#E11B22" d="M172.01,18.102v-0.971h-1.945v7.877h1.945v-3.202c0-1.938,0.438-2.293,0.813-2.549
		c0.603-0.407,1.689-0.302,1.689-0.302v-1.912C172.548,17.043,172.01,18.102,172.01,18.102z"/>
	<path fill="#E11B22" d="M182.74,23.532c-0.896,0-0.896-0.285-0.896-1.268v-3.747h1.464v-1.387h-1.464v-2.802h-1.892v2.802h-1.055
		v1.387h1.055v4.049c0,0.794,0,1.301,0.126,1.614c0.362,0.965,1.687,1.012,2.08,1.012c0.307,0,0.67-0.063,1.173-0.109v-1.565
		C183.061,23.529,182.864,23.532,182.74,23.532z"/>
	<path fill="#E11B22" d="M148.56,16.963L148.56,16.963c-2.222,0.027-3.864,1.652-3.864,4.047c0,0.156,0.033,0.481,0.033,0.481
		c0.231,2.528,2.168,3.698,4.088,3.698c1.594,0,2.574-0.595,3.543-1.896l-1.356-1.022c-0.234,0.328-0.937,1.211-2.218,1.211
		c-1.223,0-2.067-0.822-2.293-1.992l5.866-0.007C152.358,18.709,150.851,16.963,148.56,16.963z M146.667,20.059
		c0,0,0.229-1.654,1.846-1.654c1.617,0,1.953,1.654,1.953,1.654H146.667z"/>
	<path fill="#E11B22" d="M143.398,23.599c-0.617,1.168-1.975,1.588-3.208,1.588h-0.046c-1.311,0-2.699-0.45-3.64-1.401l1.373-1.136
		c0.555,0.686,1.356,0.995,2.22,0.995c0.525,0,1.527-0.218,1.527-0.902c0-0.249-0.154-0.42-0.355-0.545
		c-0.339-0.203-1.773-0.39-2.267-0.514c-1.126-0.295-2.16-0.919-2.16-2.227c0-1.168,0.926-2.009,1.959-2.336
		c0.432-0.139,0.849-0.187,1.281-0.187h0.077c1.295,0,2.453,0.451,3.317,1.447l-1.313,1.23c-0.416-0.841-1.203-1.184-2.097-1.184
		c-0.462,0-1.28,0.173-1.28,0.779c0,0.653,0.849,0.778,1.343,0.872c0.771,0.155,2.128,0.28,2.745,0.778
		c0.54,0.436,0.802,0.995,0.802,1.697C143.676,22.913,143.567,23.287,143.398,23.599z"/>
	<path fill="#E11B22" d="M189.432,23.768c-0.288,0.933-0.606,2.463-1.404,3.121c-0.51,0.428-1.085,0.488-1.739,0.488
		c-0.351,0-0.733-0.015-1.068-0.106v-1.59c0.175,0.014,0.335,0.046,0.509,0.046c0.655,0,1.118-0.2,1.309-0.827l-2.888-7.779h2.017
		l1.828,5.181l1.478-5.181h1.985L189.432,23.768z"/>
	<path fill="#E11B22" d="M164.229,25.185c0.774,0,1.596-0.366,2.167-0.938v0.77h1.884v-7.878h-1.879v3.965
		c0,0.055-0.005,0.875-0.005,0.926c0,0.816-0.628,1.536-1.632,1.536c-0.863,0-1.481-0.535-1.481-1.563v-4.864h-1.829v4.982
		c0,0.427,0,0.836,0.127,1.247C161.947,24.568,163.044,25.185,164.229,25.185z"/>
	<rect x="175.863" y="17.129" fill="#E11B22" width="1.925" height="7.888"/>
	<rect x="175.856" y="14.322" fill="#E11B22" width="1.924" height="1.74"/>
</g>
<g>
	<path fill="#E11B22" d="M156.378,13.166c-0.84,0-1.54-0.421-2.084-1.042v0.809h-1.852V2.231h1.852v3.576
		c0.654-0.561,1.385-0.887,2.255-0.887c0.576,0,1.136,0.187,1.618,0.481c1.229,0.762,1.79,2.179,1.79,3.578
		C159.957,11.096,158.681,13.166,156.378,13.166z M156.098,6.616c-1.275,0-1.82,1.182-1.82,2.302c0,1.213,0.482,2.474,1.897,2.474
		c1.369,0,1.868-1.339,1.868-2.506C158.043,7.72,157.374,6.616,156.098,6.616z"/>
</g>
<g>
	<line fill="#E11B22" x1="209.873" y1="-0.06" x2="209.873" y2="30.911"/>
	<rect x="209.613" y="-0.06" fill="#E11B22" width="0.522" height="30.971"/>
</g>
<g>
	<line fill="#E11B22" x1="209.539" y1="-0.06" x2="209.539" y2="30.911"/>
</g>
<path fill="#E11B22" d="M229.946,12.994v7.437h-2.684v-9.728c0-0.67,0.336-1.006,1.004-1.006h1.343c0.675,0,1.57,0.67,2.683,2.011
	l4.361,5.417V9.697h2.683v9.729c0,0.671-0.334,1.004-1.003,1.004h-1.342c-0.668,0-1.563-0.674-2.682-2.016L229.946,12.994z"/>
<path fill="#E11B22" d="M245.468,20.431c-1.481,0-2.747-0.522-3.794-1.571s-1.571-2.313-1.571-3.794
	c0-1.482,0.524-2.746,1.571-3.795c1.047-1.046,2.313-1.573,3.794-1.573h2.017c1.478,0,2.742,0.526,3.791,1.573
	c1.051,1.049,1.578,2.313,1.578,3.795c0,1.482-0.527,2.746-1.578,3.794c-1.049,1.049-2.313,1.571-3.791,1.571H245.468z
	 M247.485,17.748c0.74,0,1.372-0.262,1.898-0.785c0.524-0.525,0.785-1.156,0.785-1.898c0-0.741-0.261-1.374-0.785-1.897
	c-0.526-0.525-1.158-0.786-1.898-0.786h-2.017c-0.739,0-1.37,0.261-1.896,0.786c-0.525,0.523-0.784,1.156-0.784,1.897
	c0,0.742,0.259,1.373,0.784,1.898c0.525,0.523,1.156,0.785,1.896,0.785H247.485z"/>
<path fill="#E11B22" d="M323.395,12.382v5.366h6.705v2.683h-9.393V9.697h9.393v2.685H323.395z M330.1,13.722v2.685h-5.365v-2.685
	H330.1z"/>
<path fill="#E11B22" d="M341.6,9.697v2.685h-5.367c-0.74,0-1.371,0.261-1.895,0.786c-0.527,0.523-0.785,1.156-0.785,1.897
	c0,0.742,0.258,1.373,0.785,1.898c0.523,0.523,1.154,0.785,1.895,0.785h5.367v2.683h-5.367c-1.482,0-2.746-0.522-3.795-1.571
	c-1.045-1.049-1.57-2.313-1.57-3.794c0-1.482,0.525-2.746,1.57-3.795c1.049-1.046,2.313-1.573,3.795-1.573H341.6z"/>
<path fill="#E11B22" d="M351.365,17.358c0.262-0.262,0.393-0.579,0.393-0.952V9.697h2.68v6.709c0,1.115-0.389,2.063-1.174,2.848
	s-1.732,1.177-2.848,1.177h-4.023c-1.117,0-2.064-0.393-2.852-1.177c-0.783-0.784-1.172-1.732-1.172-2.848V9.697h2.68v6.709
	c0,0.373,0.131,0.69,0.391,0.952c0.26,0.259,0.58,0.39,0.953,0.39h4.023C350.791,17.748,351.105,17.617,351.365,17.358z"/>
<path fill="#E11B22" d="M363.256,15.065c0.375,0,0.689-0.131,0.951-0.392c0.26-0.26,0.391-0.577,0.391-0.951
	c0-0.372-0.131-0.688-0.391-0.949c-0.262-0.26-0.576-0.391-0.951-0.391h-5.365v8.049h-2.684V9.697h8.049
	c1.113,0,2.064,0.394,2.848,1.179c0.785,0.784,1.178,1.734,1.178,2.846c0,1.116-0.393,2.064-1.174,2.845
	c-0.287,0.287-0.594,0.52-0.918,0.705l2.766,3.159h-3.357l-2.344-2.683h-3.021v-2.683H363.256z"/>
<path fill="#E11B22" d="M371.404,12.382v5.366h6.707v2.683h-9.389V9.697h9.389v2.685H371.404z M378.111,13.722v2.685h-5.367v-2.685
	H378.111z"/>
<g>
	<path fill="#E11B22" d="M293.243,13.609h-2.016c-0.742,0-1.375,0.264-1.897,0.785c-0.526,0.528-0.786,1.158-0.786,1.9
		c0,0.74,0.26,1.371,0.786,1.896c0.522,0.524,1.155,0.785,1.897,0.785h2.016c0.74,0,1.373-0.261,1.896-0.785
		c0.525-0.525,0.785-1.156,0.785-1.896c0-0.742-0.26-1.373-0.785-1.9C294.616,13.873,293.983,13.609,293.243,13.609z"/>
	<path fill="#E11B22" d="M297.59,3.157h-35.447L276.8,36.52l30.502-16.188L297.59,3.157z M285.094,13.609h-7.375
		c-0.186,0-0.342,0.067-0.475,0.202c-0.135,0.13-0.2,0.286-0.2,0.468c0,0.183,0.065,0.342,0.2,0.472
		c0.133,0.135,0.289,0.202,0.475,0.202h4.023c0.926,0,1.715,0.327,2.371,0.981c0.654,0.653,0.98,1.444,0.98,2.367
		c0,0.931-0.326,1.723-0.98,2.377c-0.656,0.654-1.445,0.98-2.371,0.98h-7.381v-2.683h7.381c0.183,0,0.335-0.065,0.47-0.197
		c0.132-0.136,0.196-0.292,0.196-0.478c0-0.178-0.064-0.334-0.196-0.468c-0.135-0.131-0.287-0.199-0.47-0.199h-4.023
		c-0.93,0-1.722-0.326-2.377-0.981c-0.654-0.653-0.98-1.444-0.98-2.374c0-0.927,0.326-1.717,0.98-2.369
		c0.655-0.656,1.447-0.983,2.377-0.983h7.375V13.609z M293.243,21.659h-2.016c-1.482,0-2.746-0.524-3.797-1.57
		c-1.044-1.049-1.571-2.313-1.571-3.794c0-1.483,0.527-2.749,1.571-3.795c1.051-1.048,2.314-1.572,3.797-1.572h2.016
		c1.477,0,2.74,0.524,3.789,1.572c1.054,1.047,1.576,2.313,1.576,3.795c0,1.481-0.522,2.745-1.576,3.794
		C295.983,21.135,294.719,21.659,293.243,21.659z"/>
</g>
<polygon fill="#E11B22" points="262.232,9.697 253.618,9.697 253.618,12.382 256.975,12.382 256.975,20.431 259.661,20.431 
	259.661,12.382 263.389,12.382 263.01,11.465 "/>
<path fill="#E11B22" d="M312.566,12.382h7.377V9.697h-7.377c-0.928,0-1.719,0.329-2.375,0.983c-0.656,0.654-0.98,1.444-0.98,2.367
	c0,0.933,0.324,1.723,0.98,2.377c0.656,0.655,1.447,0.982,2.375,0.982h4.025c0.182,0,0.336,0.065,0.467,0.199
	c0.135,0.133,0.201,0.289,0.201,0.468c0,0.185-0.066,0.343-0.201,0.475c-0.131,0.134-0.285,0.2-0.467,0.2h-6.902l0.527,0.935
	l0.988,1.748h5.387c0.926,0,1.713-0.325,2.369-0.979c0.654-0.654,0.982-1.448,0.982-2.378c0-0.925-0.328-1.714-0.982-2.367
	c-0.656-0.656-1.443-0.984-2.369-0.984h-4.025c-0.182,0-0.342-0.065-0.473-0.198c-0.133-0.133-0.201-0.291-0.201-0.477
	c0-0.179,0.068-0.332,0.201-0.465C312.225,12.448,312.385,12.382,312.566,12.382z"/>
</svg>
