<?xml version="1.0" encoding="utf-8"?>
<!-- Generator: Adobe Illustrator 15.1.0, SVG Export Plug-In . SVG Version: 6.00 Build 0)  -->
<!DOCTYPE svg PUBLIC "-//W3C//DTD SVG 1.1//EN" "http://www.w3.org/Graphics/SVG/1.1/DTD/svg11.dtd">
<svg version="1.1" id="Layer_1" xmlns="http://www.w3.org/2000/svg" xmlns:xlink="http://www.w3.org/1999/xlink" x="0px" y="0px"
	 width="211.25px" height="22.25px" viewBox="0 0 211.25 22.25" enable-background="new 0 0 211.25 22.25" xml:space="preserve">
<path fill="#FFFFFF" d="M41.208,15.438c-0.53,0-1.079-0.136-1.553-0.388c-1.628-0.857-2.12-2.786-2.12-4.539
	c0-2.299,1.135-4.734,3.673-4.734c1.496,0,2.746,0.995,2.917,2.552l2.48-0.662c-0.228-0.721-0.512-1.402-0.909-2.026
	c-0.985-1.519-2.765-2.22-4.488-2.22c-2.746,0-5.037,1.539-5.945,4.246c-0.322,0.973-0.435,1.988-0.435,3.019
	c0,3.837,2.196,7.188,6.19,7.188c2.784,0,4.849-1.479,5.833-4.188l-2.367-1.013C44.049,14.232,42.837,15.438,41.208,15.438z"/>
<rect x="48.162" y="3.337" fill="#FFFFFF" width="2.523" height="14.185"/>
<path fill="#FFFFFF" d="M58.047,6.873c-3.185,0-5.335,2.295-5.335,5.438c0,3.104,2.15,5.521,5.335,5.521
	c3.184,0,5.294-2.335,5.294-5.438S61.211,6.873,58.047,6.873z M58.11,15.559c-1.821,0-2.813-1.592-2.813-3.268
	c0-1.634,0.869-3.185,2.668-3.185c1.84,0,2.792,1.613,2.792,3.288C60.757,14.008,59.908,15.559,58.11,15.559z"/>
<path fill="#FFFFFF" d="M72.046,11.567c0,1.22,0.084,2.481-0.93,3.35c-0.394,0.352-0.973,0.517-1.49,0.517
	c-0.331,0-0.683-0.062-0.971-0.206c-0.952-0.455-1.034-1.2-1.034-2.172V7.183h-2.502v6.762c0,2.357,1.055,3.825,3.577,3.825
	c1.386,0,2.336-0.413,3.35-1.322v1.074h2.482V7.183h-2.482V11.567z"/>
<path fill="#FFFFFF" d="M84.587,8.031c-0.724-0.807-1.696-1.158-2.771-1.158c-3.082,0-4.695,2.854-4.695,5.625v0.063
	c0,2.791,1.572,5.271,4.59,5.271c1.138,0,2.152-0.413,2.875-1.323v1.014h2.461V3.337h-2.461V8.031z M82.106,15.579
	c-1.758,0-2.399-1.819-2.399-3.288c0-1.552,0.765-3.124,2.501-3.124c1.862,0,2.357,1.778,2.357,3.33
	C84.565,14.049,83.842,15.579,82.106,15.579z"/>
<path fill="#FFFFFF" d="M100.534,9.05c-0.915-0.195-2.533-0.41-2.533-1.636c0-1.305,1.637-1.676,2.649-1.676
	c1.617,0,2.65,0.74,3.507,2.045l2.124-1.577c-0.157-0.195-0.293-0.39-0.468-0.585c-1.344-1.5-3.078-2.201-5.064-2.201
	c-2.65,0-5.455,1.246-5.455,4.284c0,1.852,1.072,2.98,2.767,3.525c0.428,0.137,0.857,0.216,1.285,0.313l1.636,0.37
	c1.033,0.234,2.649,0.429,2.649,1.791c0,1.422-1.54,1.793-2.688,1.793c-1.422,0-2.845-0.409-3.798-1.5
	c-0.157-0.176-0.293-0.369-0.43-0.564l-2.163,1.5c0.215,0.407,0.643,0.876,0.974,1.188c1.325,1.207,3.176,1.753,4.947,1.753
	c2.766,0,5.942-1.109,5.942-4.421C106.417,10.082,103.144,9.614,100.534,9.05z"/>
<path fill="#FFFFFF" d="M113.226,15.414c-1.633,0-2.646-0.931-2.936-2.564h7.651c0-1.222-0.289-2.834-0.929-3.868
	c-0.891-1.468-2.544-2.109-4.2-2.109c-2.048,0-3.784,0.973-4.652,2.854c-0.372,0.827-0.497,1.736-0.497,2.625
	c0,3.187,2.068,5.48,5.314,5.48c1.51,0,2.999-0.536,4.116-1.57c0.352-0.331,0.62-0.683,0.931-1.055l-2.11-1.221
	C115.294,14.938,114.364,15.414,113.226,15.414z M110.581,10.326c0.456-0.993,1.241-1.467,2.316-1.467
	c1.386,0,2.109,0.847,2.315,2.171h-4.839C110.395,10.823,110.497,10.513,110.581,10.326z"/>
<path fill="#FFFFFF" d="M124.063,15.516c-1.819,0-2.626-1.612-2.626-3.225c0-1.572,0.765-3.206,2.543-3.206
	c1.138,0,2.006,0.683,2.358,1.758l2.213-1.034c-0.785-1.841-2.46-2.937-4.467-2.937c-3.081,0-5.212,2.481-5.212,5.479
	c0,2.938,2.007,5.48,5.089,5.48c2.005,0,4.073-1.261,4.693-3.226l-2.109-1.116C126.048,14.648,125.469,15.516,124.063,15.516z"/>
<path fill="#FFFFFF" d="M137.133,11.567c0,1.22,0.082,2.481-0.93,3.35c-0.393,0.352-0.973,0.517-1.49,0.517
	c-0.331,0-0.683-0.062-0.971-0.206c-0.952-0.455-1.034-1.2-1.034-2.172V7.183h-2.502v6.762c0,2.357,1.055,3.825,3.577,3.825
	c1.386,0,2.336-0.413,3.35-1.322v1.074h2.481V7.183h-2.481V11.567z"/>
<path fill="#FFFFFF" d="M144.771,8.65V7.183h-2.399v10.339h2.399V13.18v-0.33c0-2.235,0.93-3.351,3.288-3.351V6.956
	C146.653,6.956,145.433,7.328,144.771,8.65z"/>
<rect x="149.507" y="7.183" fill="#FFFFFF" width="2.46" height="10.339"/>
<rect x="149.507" y="3.26" fill="#FFFFFF" width="2.46" height="2.504"/>
<path fill="#FFFFFF" d="M158.028,3.243h-2.481v3.94h-1.51v1.758h1.51v5.769c0,0.393,0,1.262,0.164,1.634
	c0.456,1.096,1.676,1.261,2.73,1.261c0.601,0,1.22-0.041,1.8-0.165v-2.088c-0.352,0.082-0.663,0.123-1.014,0.123
	c-1.014,0-1.2-0.433-1.2-1.363v-5.17h2.213V7.183h-2.213V3.243z"/>
<path fill="#FFFFFF" d="M166.071,14.896l-2.316-7.713h-2.667l3.743,10.546c-0.248,0.849-0.848,1.116-1.696,1.116
	c-0.227,0-0.433-0.041-0.661-0.062v2.15c0.434,0.125,0.931,0.145,1.386,0.145c0.848,0,1.592-0.082,2.254-0.66
	c1.034-0.891,1.447-2.959,1.819-4.221l2.626-9.015h-2.544L166.071,14.896z"/>
<polygon fill="#FFFFFF" points="188.175,15.136 184.711,3.243 183.797,3.243 180.454,15.136 177.151,3.243 175.719,3.243 
	179.878,17.522 180.932,17.522 184.275,6.163 187.637,17.522 188.712,17.522 192.71,3.243 191.377,3.243 "/>
<rect x="194.479" y="7.071" fill="#FFFFFF" width="1.198" height="10.451"/>
<rect x="194.479" y="3.225" fill="#FFFFFF" width="1.198" height="1.865"/>
<rect x="208.415" y="7.071" fill="#FFFFFF" width="1.199" height="10.451"/>
<rect x="208.415" y="3.225" fill="#FFFFFF" width="1.199" height="1.865"/>
<polygon fill="#FFFFFF" points="206.846,7.105 205.314,7.105 199.771,12.85 199.771,3.225 198.573,3.225 198.573,17.522 
	199.771,17.522 199.771,14.421 201.85,12.325 205.646,17.522 207.136,17.522 202.697,11.499 "/>
<path fill="#FFFFFF" d="M21.486,5.119c-0.217,0-0.44,0.014-0.663,0.036C19.345,2.577,16.713,1,13.858,1
	c-3.269,0-6.246,2.114-7.518,5.3C3.363,6.5,1,9.132,1,12.338c0,3.34,2.559,6.049,5.694,6.049h14.792
	c3.445,0,6.245-2.974,6.245-6.635C27.731,8.087,24.932,5.119,21.486,5.119z M11.241,6.949c0-1.393,1.129-2.528,2.525-2.528
	c1.394,0,2.526,1.135,2.526,2.528v4.009h-1.134V6.949c0-0.766-0.623-1.393-1.392-1.393c-0.769,0-1.391,0.627-1.391,1.393v4.009
	h-1.134V6.949z M17.063,15.674h-6.488v-4.386h6.488V15.674z"/>
</svg>
